<svg width="26" height="27" fill="none" xmlns="http://www.w3.org/2000/svg"><path d="M10.5 26.065c1.38 0 2.5-1.204 2.5-2.688 0-1.484-1.12-2.687-2.5-2.687S8 21.893 8 23.377c0 1.485 1.12 2.688 2.5 2.688zm8.245-5.362c-1.374-.145-2.598.934-2.733 2.411-.135 1.477.87 2.792 2.243 2.938.163.017.327.017.49 0 1.374-.146 2.378-1.46 2.243-2.938-.117-1.276-1.056-2.285-2.243-2.41zM24.624 5.25a.796.796 0 01.69.388.954.954 0 01.181.807L23.273 16c-.097.433-.456.74-.871.742H6.697c-.428.007-.798-.321-.871-.774L3.033 2.184H0V.248h3.754c.414.002.774.309.87.742l.871 4.26h19.129z" fill="#ED3237"/></svg>