<svg width="21" height="20" fill="none" xmlns="http://www.w3.org/2000/svg"><g clip-path="url(#clip0_38_34)"><path d="M10.518.042C4.975.042.481 4.519.481 10.042c0 4.953 3.619 9.055 8.363 9.85v-7.764h-2.42V9.334h2.42v-2.06c0-2.39 1.465-3.693 3.606-3.693 1.025 0 1.906.077 2.162.11v2.498l-1.485.001c-1.164 0-1.388.551-1.388 1.36v1.783h2.777l-.362 2.794h-2.415v7.831c4.966-.602 8.816-4.808 8.816-9.92 0-5.52-4.494-9.996-10.037-9.996z" fill="#fff"/></g><defs><clipPath id="clip0_38_34"><path fill="#fff" transform="translate(.481)" d="M0 0h20.073v20H0z"/></clipPath></defs></svg>