<svg width="18" height="18" fill="none" xmlns="http://www.w3.org/2000/svg"><path d="M.75 7.382c0 3.655 2.951 6.632 6.583 6.632s6.583-2.977 6.583-6.632S10.965.75 7.333.75.75 3.727.75 7.382zm1.5 0c0-2.827 2.282-5.124 5.083-5.124 2.8 0 5.083 2.297 5.083 5.124 0 2.827-2.282 5.125-5.083 5.125-2.8 0-5.083-2.298-5.083-5.125z" fill="#fff" stroke="#fff" stroke-width=".5"/><path d="M10.929 11.008h0a.757.757 0 000 1.065s0 0 0 0l5.04 5.078s0 0 0 0a.745.745 0 001.062 0h0a.757.757 0 000-1.064l-5.04-5.08a.747.747 0 00-1.062 0z" fill="#fff" stroke="#fff" stroke-width=".5"/></svg>