<svg width="22" height="20" fill="none" xmlns="http://www.w3.org/2000/svg"><g clip-path="url(#clip0_38_32)"><path d="M10.757 20c5.676 0 10.276-4.476 10.276-10s-4.6-10-10.276-10S.481 4.476.481 10s4.6 10 10.276 10zM5.183 9.783l9.908-3.717c.46-.162.861.109.712.786l.001-.001-1.687 7.734c-.125.548-.46.682-.928.423l-2.569-1.842-1.239 1.162c-.137.133-.253.245-.518.245l.182-2.544 4.761-4.186c.208-.177-.046-.277-.32-.1l-5.883 3.604-2.536-.77c-.55-.17-.563-.535.116-.794z" fill="#fff"/></g><defs><clipPath id="clip0_38_32"><path fill="#fff" transform="translate(.481)" d="M0 0h20.551v20H0z"/></clipPath></defs></svg>