<svg width="12" height="16" fill="none" xmlns="http://www.w3.org/2000/svg"><path d="M10.18 1.808H8.468v-.09A1.72 1.72 0 006.75 0H4.37a1.72 1.72 0 00-1.718 1.719v.09H.938A.938.938 0 000 2.745v.715c0 .172.14.312.313.312h10.493c.172 0 .312-.14.312-.312v-.715a.937.937 0 00-.937-.938zm-6.592-.09c0-.43.35-.78.782-.78h2.379c.43 0 .78.35.78.78v.09H3.59v-.09zM.404 4.71l.758 10.854a.469.469 0 00.467.436h7.86c.245 0 .45-.19.467-.436l.757-10.853H.404zm3.3 9.696h-.02a.469.469 0 01-.469-.449l-.312-7.343a.469.469 0 11.937-.04l.312 7.344a.469.469 0 01-.448.488zm2.323-.469a.469.469 0 11-.937 0V6.595a.469.469 0 11.937 0v7.343zm1.875.02a.469.469 0 01-.937-.04l.313-7.343a.469.469 0 01.937.04l-.313 7.343z" fill="#BEBEBE"/></svg>