<svg width="22" height="20" fill="none" xmlns="http://www.w3.org/2000/svg"><g clip-path="url(#clip0_38_30)"><path d="M10.757 0C5.083 0 .481 4.478.481 10s4.602 10 10.276 10c5.674 0 10.276-4.478 10.276-10S16.43 0 10.757 0zm4.692 7.797c.004.098.007.197.007.297 0 3.033-2.373 6.53-6.711 6.53a6.81 6.81 0 01-3.615-1.03c.184.02.372.03.562.03a4.816 4.816 0 002.93-.982 2.354 2.354 0 01-2.204-1.594 2.406 2.406 0 001.066-.04c-1.08-.21-1.893-1.138-1.893-2.25V8.73a2.4 2.4 0 001.069.287 2.278 2.278 0 01-1.05-1.911c0-.42.117-.814.32-1.154a6.759 6.759 0 004.861 2.399 2.232 2.232 0 01-.061-.524c0-1.267 1.056-2.295 2.359-2.295.678 0 1.29.28 1.721.725a4.81 4.81 0 001.498-.557c-.176.536-.55.985-1.037 1.27a4.804 4.804 0 001.354-.362c-.316.46-.716.865-1.176 1.189z" fill="#fff"/></g><defs><clipPath id="clip0_38_30"><path fill="#fff" transform="translate(.481)" d="M0 0h20.551v20H0z"/></clipPath></defs></svg>